<?xml version="1.0" encoding="UTF-8" ?>
<!DOCTYPE svg PUBLIC "-//W3C//DTD SVG 1.1//EN" "http://www.w3.org/Graphics/SVG/1.1/DTD/svg11.dtd">
<svg width="163pt" height="100pt" viewBox="0 0 163 100" version="1.1" xmlns="http://www.w3.org/2000/svg">
<path fill="#f3f3f3" d=" M 0.00 0.00 L 9.99 0.00 C 6.45 16.90 7.37 35.17 15.35 50.73 C 24.87 69.99 43.02 84.98 63.99 90.03 C 81.22 94.03 99.98 92.13 115.63 83.67 C 130.90 75.51 143.41 61.96 149.82 45.83 C 155.82 31.40 156.29 15.13 152.91 0.00 L 163.00 0.00 L 163.00 27.55 C 160.57 39.67 157.28 51.91 150.24 62.25 C 142.11 75.27 130.07 85.60 116.30 92.28 C 107.99 96.20 98.96 98.29 89.98 100.00 L 72.42 100.00 C 60.32 97.55 48.08 94.31 37.77 87.23 C 24.54 78.98 14.01 66.71 7.42 52.62 C 3.68 44.51 1.67 35.74 0.00 27.01 L 0.00 0.00 Z" />
<path fill="#ffffff" d=" M 9.99 0.00 L 152.91 0.00 C 156.29 15.13 155.82 31.40 149.82 45.83 C 143.41 61.96 130.90 75.51 115.63 83.67 C 99.98 92.13 81.22 94.03 63.99 90.03 C 43.02 84.98 24.87 69.99 15.35 50.73 C 7.37 35.17 6.45 16.90 9.99 0.00 Z" />
<path fill="#fec524" d=" M 82.75 15.70 C 84.84 11.35 90.36 10.15 94.68 11.45 C 104.03 14.12 110.28 24.49 108.54 34.03 C 108.00 38.22 105.68 41.86 103.26 45.22 C 104.12 41.81 105.07 38.00 103.16 34.76 C 100.60 30.00 95.01 28.14 89.91 27.95 C 83.96 28.03 79.89 20.84 82.75 15.70 Z" />
<path fill="#00833c" d=" M 112.53 25.50 C 114.88 21.37 121.39 20.88 124.34 24.61 C 127.37 28.54 127.26 34.10 125.50 38.55 C 122.56 45.99 116.24 51.63 109.16 55.08 C 111.67 49.76 113.65 43.88 112.67 37.91 C 112.32 33.82 110.25 29.37 112.53 25.50 Z" />
<path fill="#99cdb1" d=" M 129.26 24.02 C 130.78 23.65 133.28 23.96 133.06 26.05 C 133.63 27.96 131.96 29.62 130.06 29.06 C 127.46 29.13 127.17 25.04 129.26 24.02 Z" />
<path fill="#ffffff" d=" M 0.00 27.01 C 1.67 35.74 3.68 44.51 7.42 52.62 C 14.01 66.71 24.54 78.98 37.77 87.23 C 48.08 94.31 60.32 97.55 72.42 100.00 L 0.00 100.00 L 0.00 27.01 Z" />
<path fill="#ffffff" d=" M 150.24 62.25 C 157.28 51.91 160.57 39.67 163.00 27.55 L 163.00 100.00 L 89.98 100.00 C 98.96 98.29 107.99 96.20 116.30 92.28 C 130.07 85.60 142.11 75.27 150.24 62.25 Z" />
<path fill="#00833c" d=" M 34.22 30.13 C 35.51 29.82 36.80 29.50 38.09 29.17 C 37.83 30.59 37.57 32.01 37.31 33.43 C 38.18 33.44 39.92 33.44 40.79 33.44 C 40.61 34.42 40.41 35.40 40.19 36.37 C 39.04 36.37 37.89 36.37 36.73 36.39 C 36.10 39.46 35.48 42.54 35.18 45.67 C 35.88 45.80 37.28 46.08 37.98 46.22 C 37.85 46.96 37.60 48.44 37.48 49.18 C 35.35 49.15 32.25 49.69 31.46 47.04 C 31.30 43.43 32.45 39.93 33.05 36.40 C 32.53 36.39 31.49 36.37 30.96 36.36 C 31.09 35.64 31.34 34.21 31.47 33.49 C 32.01 33.46 33.09 33.41 33.63 33.39 C 33.78 32.57 34.07 30.94 34.22 30.13 Z" />
<path fill="#00833c" d=" M 40.71 46.40 C 37.73 40.43 43.20 31.74 50.15 33.23 C 53.47 33.63 54.97 38.19 52.54 40.49 C 49.97 42.69 46.35 42.37 43.21 42.77 C 43.99 47.07 48.55 46.51 51.70 45.49 C 52.17 47.33 51.59 48.41 49.95 48.72 C 46.84 49.63 42.49 49.62 40.71 46.40 Z" />
<path fill="#00833c" d=" M 60.73 33.85 C 63.62 32.64 66.79 33.20 69.76 33.66 C 68.76 38.72 67.60 43.77 67.41 48.95 C 66.26 48.96 65.11 48.95 63.96 48.92 C 64.07 48.10 64.29 46.48 64.40 45.67 C 62.93 47.24 61.44 49.29 59.04 49.26 C 56.82 49.50 54.73 47.86 54.30 45.71 C 53.37 40.92 56.09 35.57 60.73 33.85 Z" />
<path fill="#00833c" d=" M 72.89 33.46 C 73.91 33.43 74.93 33.41 75.95 33.41 C 75.97 33.95 76.02 35.05 76.04 35.60 C 78.36 32.92 83.24 31.77 85.06 35.63 C 87.16 33.27 91.92 31.62 93.74 35.11 C 94.77 39.72 92.73 44.37 92.16 48.94 C 91.24 48.94 89.41 48.94 88.49 48.94 C 89.11 45.23 90.14 41.57 90.33 37.81 C 90.03 35.21 86.76 36.14 85.87 37.84 C 83.81 41.15 83.83 45.23 82.95 48.94 C 82.04 48.94 80.22 48.94 79.31 48.94 C 79.93 45.26 80.95 41.64 81.13 37.90 C 81.15 35.61 78.30 35.83 77.26 37.26 C 74.47 40.44 74.77 45.02 73.81 48.93 C 72.89 48.93 71.06 48.94 70.14 48.94 C 71.08 43.79 72.08 38.64 72.89 33.46 Z" />
<path fill="#ffffff" d=" M 43.68 39.78 C 44.70 37.39 48.05 34.08 50.27 37.11 C 49.88 40.27 45.92 39.47 43.68 39.78 Z" />
<path fill="#ffffff" d=" M 58.25 44.79 C 57.08 40.32 60.83 35.49 65.54 35.78 C 64.79 39.21 64.72 43.41 61.66 45.72 C 60.54 46.63 58.61 46.30 58.25 44.79 Z" />
<path fill="#76bd1d" d=" M 100.90 50.83 C 105.38 48.27 107.50 43.35 110.14 39.18 C 109.96 46.35 107.78 53.59 103.16 59.16 C 98.81 64.59 92.02 68.22 84.97 67.99 C 81.36 67.96 78.13 64.70 78.22 61.07 C 78.08 57.40 81.24 53.93 84.97 54.00 C 90.36 53.67 96.10 53.68 100.90 50.83 Z" />
</svg>
