<?xml version="1.0" encoding="utf-8"?>
<!-- Generator: Adobe Illustrator 16.0.0, SVG Export Plug-In . SVG Version: 6.00 Build 0)  -->
<!DOCTYPE svg PUBLIC "-//W3C//DTD SVG 1.1//EN" "http://www.w3.org/Graphics/SVG/1.1/DTD/svg11.dtd">
<svg version="1.1" id="Layer_1" xmlns="http://www.w3.org/2000/svg" xmlns:xlink="http://www.w3.org/1999/xlink" x="0px" y="0px"
	 width="189.399px" height="106.386px" viewBox="0 0 189.399 106.386" enable-background="new 0 0 189.399 106.386"
	 xml:space="preserve">
<g>
	<defs>
		<rect id="SVGID_1_" width="189.399" height="106.386"/>
	</defs>
	<clipPath id="SVGID_2_">
		<use xlink:href="#SVGID_1_"  overflow="visible"/>
	</clipPath>
	<path clip-path="url(#SVGID_2_)" fill="#00833C" d="M13.097,34.019l-1.476,7.918h6.489l-1.061,5.319l-6.431-0.001L8.32,58.889
		c-0.24,1.357-0.474,2.835-0.472,4.076c-0.002,1.534,0.706,2.54,2.534,2.539c0.827,0.001,1.652,0,2.359-0.117l-0.647,5.376
		c-1.005,0.355-2.833,0.592-4.485,0.592c-4.717,0.001-6.843-2.598-6.844-5.909c0.001-1.654,0.178-3.249,0.651-5.375l2.479-12.815
		L0,47.255l1.002-5.318l3.891,0.001l1.183-6.204L13.097,34.019z"/>
	<path clip-path="url(#SVGID_2_)" fill="#00833C" d="M38.526,69.048c-2.83,1.478-6.667,2.244-10.145,2.244
		c-7.966,0.001-11.804-4.842-11.803-11.87c0-8.687,6.373-18.135,16.285-18.135c5.663,0.001,9.266,3.31,9.267,8.094
		c0,7.384-7.73,9.743-18.825,9.508c-0.118,1.004,0.117,2.953,0.764,4.076c1.122,1.949,3.188,2.953,5.905,2.951
		c3.244,0.002,5.84-0.826,7.904-1.886L38.526,69.048z M31.98,46.425c-4.309-0.001-7.139,3.841-7.965,7.325
		c7.079,0.119,11.619-0.884,11.619-4.31C35.634,47.549,34.164,46.425,31.98,46.425"/>
	<path clip-path="url(#SVGID_2_)" fill="#00833C" d="M61.364,70.704c0.057-1.713,0.293-4.015,0.53-6.496l-0.177,0.002
		c-2.832,5.313-6.607,7.146-10.265,7.146c-5.133,0.001-8.498-4.016-8.498-9.808c-0.002-9.805,6.843-20.257,20.241-20.257
		c3.121,0.001,6.487,0.59,8.669,1.297l-2.951,15.002c-0.825,4.313-1.297,9.687-1.178,13.112L61.364,70.704z M64.193,46.9
		c-0.708-0.178-1.593-0.296-2.829-0.294c-6.374,0-11.27,7.147-11.27,13.701c0.001,3.016,1.121,5.493,4.133,5.493
		c3.183,0.001,7.076-4.017,8.435-11.339L64.193,46.9z"/>
	<path clip-path="url(#SVGID_2_)" fill="#00833C" d="M72.752,70.702l3.66-19.843c0.646-3.429,1.116-6.44,1.415-8.921l5.959-0.001
		l-0.592,5.023h0.059c2.711-3.838,6.256-5.67,9.968-5.671c4.486,0.001,6.552,2.836,6.787,5.908
		c2.538-3.957,6.197-5.849,10.147-5.908c3.957,0,7.023,2.542,7.023,7.678c0.001,1.243-0.236,3.366-0.473,4.903l-3.188,16.832
		l-6.665,0.001l3.009-16.066c0.175-1.18,0.413-2.48,0.414-3.662c0-2.421-1.004-4.074-3.545-4.074
		c-3.125-0.001-6.605,3.958-7.725,10.042l-2.598,13.762l-6.608-0.001l3.068-16.301c0.236-1.184,0.353-2.303,0.353-3.368
		c0-2.184-0.647-4.134-3.421-4.135c-3.188,0.001-6.846,4.312-7.906,10.161l-2.476,13.644L72.752,70.702z"/>
	<path clip-path="url(#SVGID_2_)" fill="#00833C" d="M184.984,33.435c-0.615,0.004-1.194-0.113-1.725-0.342
		c-0.536-0.231-1.003-0.547-1.393-0.945c-0.394-0.399-0.703-0.86-0.933-1.393c-0.222-0.53-0.337-1.097-0.336-1.697l-0.002-0.026
		c0.001-0.599,0.115-1.165,0.339-1.695c0.23-0.531,0.54-0.999,0.941-1.403c0.391-0.403,0.861-0.718,1.398-0.951
		c0.538-0.237,1.119-0.357,1.732-0.357c0.615,0.001,1.192,0.12,1.726,0.348c0.537,0.232,1.001,0.545,1.391,0.943
		c0.396,0.395,0.705,0.86,0.932,1.394c0.226,0.534,0.343,1.096,0.343,1.698v0.023c-0.001,0.604-0.117,1.168-0.341,1.698
		c-0.229,0.531-0.539,0.999-0.938,1.4c-0.395,0.398-0.867,0.72-1.4,0.954C186.177,33.315,185.602,33.435,184.984,33.435
		 M184.982,32.588c0.513,0,0.976-0.094,1.411-0.281c0.431-0.187,0.803-0.44,1.117-0.762c0.319-0.32,0.565-0.698,0.745-1.132
		c0.181-0.434,0.27-0.895,0.27-1.382V29.01c0-0.486-0.089-0.945-0.269-1.377c-0.181-0.429-0.422-0.805-0.739-1.123
		c-0.31-0.321-0.686-0.576-1.113-0.756c-0.43-0.188-0.897-0.282-1.396-0.282c-0.509,0-0.978,0.093-1.405,0.284
		c-0.433,0.191-0.806,0.444-1.118,0.766c-0.32,0.317-0.568,0.695-0.751,1.13c-0.179,0.435-0.269,0.897-0.268,1.38l-0.001,0.025
		c0.001,0.487,0.089,0.944,0.266,1.374c0.172,0.432,0.42,0.802,0.743,1.125c0.313,0.319,0.684,0.574,1.114,0.757
		C184.023,32.498,184.484,32.589,184.982,32.588 M183.247,26.651l2.007-0.002c0.604,0.002,1.068,0.163,1.396,0.494
		c0.248,0.25,0.373,0.578,0.373,0.987v0.022c0,0.37-0.091,0.662-0.27,0.893c-0.178,0.225-0.413,0.394-0.701,0.506l1.1,1.62h-1.16
		l-0.961-1.456l-0.023-0.001l-0.764,0.001l0.001,1.456l-0.998-0.002V26.651z M185.243,28.854c0.252,0,0.44-0.058,0.573-0.177
		c0.13-0.124,0.201-0.278,0.201-0.465v-0.025c0-0.217-0.075-0.385-0.211-0.491c-0.146-0.113-0.334-0.17-0.585-0.168l-0.978-0.002
		l-0.001,1.328H185.243z"/>
	<path clip-path="url(#SVGID_2_)" fill="#00833C" d="M175.092,28.252c-2.557-5.071-7.243-7.57-12.225-7.541
		c-7.505,0.04-13.518,5.958-13.474,13.938c0.176,10.897,8.356,22.77-4.23,47.332C166.332,72.72,184.8,47.512,175.092,28.252"/>
	<path clip-path="url(#SVGID_2_)" fill="#FEC524" d="M144.442,36.555c0-18.966-16.085-36.584-32.847-36.554
		c-1.043,0-3.413,0.265-3.551,0.287c-7.68,1.089-13.598,7.677-13.598,15.667c0.002,8.305,6.744,15.839,16.021,15.841
		c14.223,0,25.699,9.318,25.699,20.721c-0.002,3.116-0.105,6.721-2.479,10.964C140.309,56.766,144.442,47.183,144.442,36.555"/>
	<path clip-path="url(#SVGID_2_)" fill="#76BD1D" d="M100.724,80.152c-7.187,0-13.009,5.882-13.009,13.24
		c0,7.414,6.246,12.993,13.009,12.994c26.939-0.001,46.043-25.904,46.042-53.536C137.418,68.675,134.172,80.151,100.724,80.152"/>
</g>
</svg>
